REM DIRINDEX 1\2,1\3,1\4
REM DIRNAME folder01,folder02,folder03,folder04
TITLE ""
FILE "DISC3Track31.mp3" MP3
  TRACK 01 AUDIO
    TITLE "0:"
    INDEX 01 00:00:00
  TRACK 02 AUDIO
    TITLE "4:cjc105_5641"
    INDEX 01 00:00:11
  TRACK 03 AUDIO
    TITLE "0:"
    INDEX 01 00:02:57
  TRACK 04 AUDIO
    TITLE "2:cjc105_5642"
    INDEX 01 00:03:29
  TRACK 05 AUDIO
    TITLE "3:cjc105_5643"
    INDEX 01 00:05:03
  TRACK 06 AUDIO
    TITLE "0:"
    INDEX 01 00:06:39
  TRACK 07 AUDIO
    TITLE "2:cjc105_5644"
    INDEX 01 00:06:61
  TRACK 08 AUDIO
    TITLE "3:cjc105_5645"
    INDEX 01 00:08:23
  TRACK 09 AUDIO
    TITLE "0:"
    INDEX 01 00:09:47
  TRACK 10 AUDIO
    TITLE "2:cjc105_5646"
    INDEX 01 00:09:67
  TRACK 11 AUDIO
    TITLE "3:cjc105_5647"
    INDEX 01 00:11:23
  TRACK 12 AUDIO
    TITLE "0:"
    INDEX 01 00:12:54
  TRACK 13 AUDIO
    TITLE "2:cjc105_5648"
    INDEX 01 00:12:73
  TRACK 14 AUDIO
    TITLE "3:cjc105_5649"
    INDEX 01 00:14:37
  TRACK 15 AUDIO
    TITLE "0:"
    INDEX 01 00:15:66
  TRACK 16 AUDIO
    TITLE "2:cjc105_5650"
    INDEX 01 00:16:12
  TRACK 17 AUDIO
    TITLE "3:cjc105_5651"
    INDEX 01 00:17:43
  TRACK 18 AUDIO
    TITLE "0:"
    INDEX 01 00:18:64
  TRACK 19 AUDIO
    TITLE "2:cjc105_5652"
    INDEX 01 00:19:07
  TRACK 20 AUDIO
    TITLE "3:cjc105_5653"
    INDEX 01 00:20:02
  TRACK 21 AUDIO
    TITLE "0:"
    INDEX 01 00:21:17
  TRACK 22 AUDIO
    TITLE "2:cjc105_5654"
    INDEX 01 00:21:31
  TRACK 23 AUDIO
    TITLE "3:cjc105_5655"
    INDEX 01 00:22:52
  TRACK 24 AUDIO
    TITLE "0:"
    INDEX 01 00:23:63
  TRACK 25 AUDIO
    TITLE "2:cjc105_5656"
    INDEX 01 00:24:10
  TRACK 26 AUDIO
    TITLE "3:cjc105_5657"
    INDEX 01 00:25:45
  TRACK 27 AUDIO
    TITLE "0:"
    INDEX 01 00:26:54
  TRACK 28 AUDIO
    TITLE "2:cjc105_5658"
    INDEX 01 00:26:71
  TRACK 29 AUDIO
    TITLE "3:cjc105_5659"
    INDEX 01 00:28:37
  TRACK 30 AUDIO
    TITLE "0:"
    INDEX 01 00:29:64
  TRACK 31 AUDIO
    TITLE "2:cjc105_5660"
    INDEX 01 00:30:06
  TRACK 32 AUDIO
    TITLE "3:cjc105_5661"
    INDEX 01 00:31:10
  TRACK 33 AUDIO
    TITLE "0:"
    INDEX 01 00:32:27
  TRACK 34 AUDIO
    TITLE "2:cjc105_5662"
    INDEX 01 00:32:48
  TRACK 35 AUDIO
    TITLE "3:cjc105_5663"
    INDEX 01 00:34:04
  TRACK 36 AUDIO
    TITLE "0:"
    INDEX 01 00:35:25
  TRACK 37 AUDIO
    TITLE "2:cjc105_5664"
    INDEX 01 00:35:45
  TRACK 38 AUDIO
    TITLE "3:cjc105_5665"
    INDEX 01 00:36:50
  TRACK 39 AUDIO
    TITLE "0:"
    INDEX 01 00:37:65
  TRACK 40 AUDIO
    TITLE "2:cjc105_5666"
    INDEX 01 00:38:08
  TRACK 41 AUDIO
    TITLE "3:cjc105_5667"
    INDEX 01 00:39:31
  TRACK 42 AUDIO
    TITLE "0:"
    INDEX 01 00:41:00
  TRACK 43 AUDIO
    TITLE "2:cjc105_5668"
    INDEX 01 00:41:18
  TRACK 44 AUDIO
    TITLE "3:cjc105_5669"
    INDEX 01 00:42:49
  TRACK 45 AUDIO
    TITLE "0:"
    INDEX 01 00:43:70
  TRACK 46 AUDIO
    TITLE "2:cjc105_5670"
    INDEX 01 00:44:14
  TRACK 47 AUDIO
    TITLE "3:cjc105_5671"
    INDEX 01 00:45:49
  TRACK 48 AUDIO
    TITLE "0:"
    INDEX 01 00:46:60
  TRACK 49 AUDIO
    TITLE "2:cjc105_5672"
    INDEX 01 00:47:03
  TRACK 50 AUDIO
    TITLE "3:cjc105_5673"
    INDEX 01 00:48:30
  TRACK 51 AUDIO
    TITLE "0:"
    INDEX 01 00:49:35
  TRACK 52 AUDIO
    TITLE "2:cjc105_5674"
    INDEX 01 00:49:57
  TRACK 53 AUDIO
    TITLE "3:cjc105_5675"
    INDEX 01 00:51:01
  TRACK 54 AUDIO
    TITLE "0:"
    INDEX 01 00:52:20
  TRACK 55 AUDIO
    TITLE "2:cjc105_5676"
    INDEX 01 00:52:43
  TRACK 56 AUDIO
    TITLE "3:cjc105_5677"
    INDEX 01 00:53:62
  TRACK 57 AUDIO
    TITLE "0:"
    INDEX 01 00:55:36
  TRACK 58 AUDIO
    TITLE "2:cjc105_5678"
    INDEX 01 00:55:57
  TRACK 59 AUDIO
    TITLE "3:cjc105_5679"
    INDEX 01 00:56:65
  TRACK 60 AUDIO
    TITLE "0:"
    INDEX 01 00:58:15
  TRACK 61 AUDIO
    TITLE "2:cjc105_5680"
    INDEX 01 00:58:38
  TRACK 62 AUDIO
    TITLE "3:cjc105_5681"
    INDEX 01 01:00:00
  TRACK 63 AUDIO
    TITLE "0:"
    INDEX 01 01:01:15
  TRACK 64 AUDIO
    TITLE "2:cjc105_5682"
    INDEX 01 01:01:38
  TRACK 65 AUDIO
    TITLE "3:cjc105_5683"
    INDEX 01 01:02:55
  TRACK 66 AUDIO
    TITLE "0:"
    INDEX 01 01:03:53
  TRACK 67 AUDIO
    TITLE "2:cjc105_5684"
    INDEX 01 01:04:00
  TRACK 68 AUDIO
    TITLE "3:cjc105_5685"
    INDEX 01 01:04:68
  TRACK 69 AUDIO
    TITLE "0:"
    INDEX 01 01:06:00
  TRACK 70 AUDIO
    TITLE "2:cjc105_5686"
    INDEX 01 01:06:20
  TRACK 71 AUDIO
    TITLE "3:cjc105_5687"
    INDEX 01 01:07:33
  TRACK 72 AUDIO
    TITLE "0:"
    INDEX 01 01:08:38
  TRACK 73 AUDIO
    TITLE "2:cjc105_5688"
    INDEX 01 01:08:58
  TRACK 74 AUDIO
    TITLE "3:cjc105_5689"
    INDEX 01 01:09:65
  TRACK 75 AUDIO
    TITLE "0:"
    INDEX 01 01:11:09
